<svg id="Layer_1" data-name="Layer 1" xmlns="http://www.w3.org/2000/svg" viewBox="0 0 555.41 176.5"><defs><style>.cls-1{fill:#79cb8c;stroke-miterlimit:3.73;stroke-width:4.86px;}.cls-1,.cls-3{stroke:#7a685d;}.cls-2{fill:#eaf7e7;}.cls-3{fill:#78b7cb;stroke-miterlimit:3.73;stroke-width:4.86px;}.cls-4{fill:#ebf6f9;}.cls-5{fill:#7a685d;}.cls-6,.cls-7,.cls-8{fill:#e9dfd6;}.cls-6{stroke:#000;stroke-miterlimit:4.67;stroke-opacity:0;stroke-width:1.17px;}.cls-7,.cls-8{stroke:#e9dfd6;stroke-linejoin:round;fill-rule:evenodd;}.cls-7{stroke-width:1.23px;}.cls-8{stroke-width:0.62px;}</style></defs><g id="g4741"><g id="g4396"><g id="g20"><path id="path22" class="cls-1" d="M167.12,354.63H9a6.77,6.77,0,0,1-6.77-6.77V189.77A6.78,6.78,0,0,1,9,183H167.12a6.79,6.79,0,0,1,6.78,6.78V347.86a6.78,6.78,0,0,1-6.78,6.77" transform="translate(0.17 -180.56)"/></g><g id="g192"><path id="path194" class="cls-2" d="M98.92,211.88H77.23V258H31.14v21.7H77.23v46.09H98.92V279.66H145V258H98.92Z" transform="translate(0.17 -180.56)"/></g></g></g><g id="g4235"><g id="g4196"><path id="path4198" class="cls-3" d="M546,354.63H387.94a6.77,6.77,0,0,1-6.77-6.77V189.77a6.78,6.78,0,0,1,6.77-6.78H546a6.79,6.79,0,0,1,6.78,6.78V347.86a6.78,6.78,0,0,1-6.78,6.77" transform="translate(0.17 -180.56)"/></g><g id="g4200"><path id="path4202" class="cls-4" d="M429.46,321.68,467,284.16l37.53,37.52,15.35-15.34-37.53-37.53,37.53-37.53-15.35-15.34L467,253.47l-37.52-37.53-15.35,15.34,37.53,37.53-37.53,37.53Z" transform="translate(0.17 -180.56)"/></g></g><g id="g4408"><g id="g24"><path id="path26" class="cls-5" d="M358.81,357.06H196.25a7,7,0,0,1-7-7V187.53a7,7,0,0,1,7-7H358.81a7,7,0,0,1,7,7V350.09a7,7,0,0,1-7,7" transform="translate(0.17 -180.56)"/></g></g><g id="text4582"><path id="path5761" class="cls-6" d="M231.31,306.7l7.65-42a18.38,18.38,0,0,1,11.14-3.94c4.28,0,6.87,2,6.87,5.51a10,10,0,0,1-.11,2l-4.39,23.3a34.33,34.33,0,0,0-.57,5.06c0,6.53,5.74,11,14.07,11,5.86,0,11.37-2.37,17.79-7.66l-4.39-6.3c-2.37,1.46-3.27,1.8-4.73,1.8-2.59,0-4.16-1.46-4.16-3.83,0-1,0-1,.9-5.63l3.49-19.69a26.72,26.72,0,0,0,.78-6.08c0-7.09-6.75-12.16-16.2-12.16a31,31,0,0,0-18.69,6.76l1-5.74h-5.85a73.69,73.69,0,0,1-21.61,3.93l-1.69,9.23H214a12.87,12.87,0,0,1,6,1.81,3.15,3.15,0,0,1,.67,2.25,37,37,0,0,1-.45,4.16l-6.64,36.13Z" transform="translate(0.17 -180.56)"/><path id="path5763" class="cls-6" d="M343.23,249.19h-16l-.79,4.27a24.31,24.31,0,0,0-15.3-5.29c-18,0-33.55,16.44-33.55,35.57,0,14,9.23,24,21.95,24a24.41,24.41,0,0,0,18.8-8.9c1.57,5.74,6.41,8.9,13.62,8.9,6.3,0,12.72-3,18.91-8.9l-4.84-6c-2.48,1.91-4.17,2.7-6,2.7a4.26,4.26,0,0,1-4.27-4.5c0-1.35,0-1.47.9-5.63Zm-19.47,12.49c-3.26,15.31-4.95,21.05-7.76,25.89-3.49,6-7.32,8.89-11.6,8.89-4.73,0-7.76-3.94-7.76-10.24,0-7.09,2.81-16.44,6.52-21.5,3-4.28,7-6.64,11-6.64C317,258.08,319.82,259.2,323.76,261.68Z" transform="translate(0.17 -180.56)"/></g><path id="path7150" class="cls-7" d="M310,224.07,331.51,232,310,239.91A13.48,13.48,0,0,0,310,224.07Z" transform="translate(0.17 -180.56)"/><path id="path4586" class="cls-8" d="M322.63,232" transform="translate(0.17 -180.56)"/></svg>