<?xml version="1.0" encoding="utf-8"?>
<svg version="1.1" id="Layer_1" xmlns="http://www.w3.org/2000/svg" xmlns:xlink="http://www.w3.org/1999/xlink" x="0px" y="0px"
	 viewBox="0 0 144 144" style="enable-background:new 0 0 144 144;" xml:space="preserve">
<style type="text/css">
	.st0{fill-rule:evenodd;clip-rule:evenodd;stroke:#000000;stroke-width:3;stroke-linecap:round;stroke-linejoin:round;}
</style>
<path d="M72.5,7.5C36.7,7.5,7.6,36.7,7.6,72.4s29.1,64.8,64.8,64.8s64.8-29.1,64.8-64.8S108.2,7.5,72.5,7.5z M72.4,13.3
	c2.3,0.1,4.1,2,4.1,4.3c0,2.4-1.9,4.3-4.3,4.3c-2.4,0-4.3-1.9-4.3-4.3c0-2.4,1.9-4.3,4.3-4.3C72.3,13.3,72.4,13.3,72.4,13.3z
	 M82.2,20.3c15.2,2.8,28.3,12.2,35.9,25.6l-5,11.4c-0.9,2,0,4.3,2,5.1l9.7,4.3c0.3,3,0.3,6.1,0.1,9.1h-5.4c-0.5,0-0.8,0.4-0.8,0.9
	v2.5c0,5.8-3.3,7.1-6.2,7.4c-2.7,0.3-5.8-1.2-6.2-2.8c-1.6-9.1-4.3-11-8.6-14.4c5.3-3.3,10.8-8.3,10.8-14.9c0-7.1-4.9-11.6-8.2-13.9
	c-4.7-3.1-9.9-3.7-11.3-3.7H33.4c7.7-8.6,18-14.4,29.4-16.6l6.6,6.9c1.5,1.6,3.9,1.6,5.5,0.1L82.2,20.3z M21.5,51.9
	c2.3,0.1,4.1,2,4.1,4.3c0,2.4-1.9,4.3-4.3,4.3c-2.4,0-4.3-1.9-4.3-4.3c0-2.4,1.9-4.3,4.3-4.3C21.4,51.9,21.5,51.9,21.5,51.9z
	 M123.2,52.1c2.3,0.1,4.1,2,4.1,4.3c0,2.4-1.9,4.3-4.3,4.3s-4.3-1.9-4.3-4.3c0-2.4,1.9-4.3,4.3-4.3
	C123.2,52.1,123.2,52.1,123.2,52.1z M29.6,52.8H37v33.5H22c-1.9-6.5-2.4-13.3-1.7-20l9.2-4.1c2-0.9,2.9-3.2,2-5.1L29.6,52.8z
	 M60.6,53.1h17.7c0.9,0,6.5,1.1,6.5,5.2c0,3.4-4.3,4.7-7.8,4.7H60.6L60.6,53.1z M60.6,77.2h13.6c1.2,0,6.6,0.4,8.3,7.2
	c0.5,2.1,1.7,9,2.5,11.2c0.8,2.5,4.1,7.4,7.6,7.4h22.1c-1.5,2-3.1,3.9-4.9,5.6l-9-1.9c-2.1-0.5-4.2,0.9-4.6,3l-2.1,10
	c-13.9,6.3-29.9,6.2-43.8-0.2l-2.1-10c-0.5-2.1-2.5-3.4-4.6-3l-8.8,1.9c-1.6-1.7-3.2-3.5-4.6-5.4h42.9c0.5,0,0.8-0.1,0.8-0.5V87.4
	c0-0.4-0.3-0.5-0.8-0.5H60.6L60.6,77.2z M40.8,112c2.3,0.1,4.1,2,4.1,4.3c0,2.4-1.9,4.3-4.3,4.3c-2.4,0-4.3-1.9-4.3-4.3
	c0-2.4,1.9-4.3,4.3-4.3C40.7,112,40.8,112,40.8,112z M104,112.2c2.3,0.1,4.1,2,4.1,4.3c0,2.4-1.9,4.3-4.3,4.3
	c-2.4,0-4.3-1.9-4.3-4.3c0-2.4,1.9-4.3,4.3-4.3C103.9,112.2,103.9,112.2,104,112.2z"/>
<path class="st0" d="M133.7,72.4c0,33.8-27.4,61.2-61.2,61.2s-61.2-27.4-61.2-61.2l0,0c0-33.8,27.4-61.2,61.2-61.2
	S133.7,38.6,133.7,72.4C133.7,72.4,133.7,72.4,133.7,72.4z M132.6,66.5l9.5,5.9l-9.5,5.9l8.2,7.7l-10.5,3.9l6.6,9.1l-11.1,1.8
	l4.7,10.2l-11.2-0.4l2.6,10.9l-10.9-2.6l0.4,11.2l-10.2-4.7l-1.8,11.1l-9.1-6.6l-3.9,10.5l-7.7-8.2l-5.9,9.5l-5.9-9.5l-7.7,8.2
	L55,130.2l-9.1,6.6L44,125.6l-10.2,4.7l0.4-11.2l-10.9,2.6l2.6-10.9l-11.2,0.4l4.7-10.2L8.2,99l6.6-9.1L4.2,86l8.2-7.7l-9.5-5.9
	l9.5-5.9l-8.2-7.7l10.5-3.9l-6.6-9.1l11.1-1.8l-4.7-10.2l11.2,0.4l-2.6-10.9l10.9,2.6l-0.4-11.2L44,19.2l1.8-11.1l9.1,6.6l3.9-10.5
	l7.7,8.2l5.9-9.5l5.9,9.5l7.7-8.2L90,14.6l9.1-6.6l1.8,11.1l10.2-4.7l-0.4,11.2l10.9-2.6l-2.6,10.9l11.2-0.4l-4.7,10.2l11.1,1.8
	l-6.6,9.1l10.5,3.9L132.6,66.5z"/>
</svg>
